HIERARCHY
ROOT hip
{
	OFFSET 0.000000 0.000000 0.000000 
	CHANNELS 6 Xposition Yposition Zposition Zrotation Xrotation Yrotation
	JOINT abdomen
	{
		OFFSET 0.000000 3.402643 0.000000 
		CHANNELS 3 Zrotation Xrotation Yrotation
		JOINT chest
		{
			OFFSET 0.000000 8.438565 -0.680529 
			CHANNELS 3 Zrotation Xrotation Yrotation
			JOINT neck
			{
				OFFSET 0.000000 10.207942 -0.272212 
				CHANNELS 3 Zrotation Xrotation Yrotation
				JOINT head
				{
					OFFSET 0.000000 3.130431 0.000000 
					CHANNELS 3 Zrotation Xrotation Yrotation
					End Site
					{
						OFFSET 0.000000 3.130435 0.000000 
					}
				}
			}
			JOINT lCollar
			{
				OFFSET 3.470700 6.669187 -0.816635 
				CHANNELS 3 Zrotation Xrotation Yrotation
				JOINT lShldr
				{
					OFFSET 3.198488 0.000000 0.000000 
					CHANNELS 3 Zrotation Xrotation Yrotation
					JOINT lForeArm
					{
						OFFSET 10.139888 0.000000 0.000000 
						CHANNELS 3 Zrotation Xrotation Yrotation
						JOINT lHand
						{
							OFFSET 8.370511 0.000000 0.000000 
							CHANNELS 3 Zrotation Xrotation Yrotation
							End Site
							{
								OFFSET 4.083176 0.000000 0.000000 
							}
						}
					}
				}
			}
			JOINT rCollar
			{
				OFFSET -3.470700 6.669187 -0.816635 
				CHANNELS 3 Zrotation Xrotation Yrotation
				JOINT rShldr
				{
					OFFSET -3.198488 0.000000 0.000000 
					CHANNELS 3 Zrotation Xrotation Yrotation
					JOINT rForeArm
					{
						OFFSET -10.139888 0.000000 0.000000 
						CHANNELS 3 Zrotation Xrotation Yrotation
						JOINT rHand
						{
							OFFSET -8.370511 0.000000 0.000000 
							CHANNELS 3 Zrotation Xrotation Yrotation
							End Site
							{
								OFFSET -4.083176 0.000000 0.000000 
							}
						}
					}
				}
			}
		}
	}
	JOINT lThigh
	{
		OFFSET 5.308129 -1.633274 1.361059 
		CHANNELS 3 Zrotation Xrotation Yrotation
		JOINT lShin
		{
			OFFSET -2.041588 -20.007561 0.000000 
			CHANNELS 3 Zrotation Xrotation Yrotation
			JOINT lFoot
			{
				OFFSET 0.000000 -19.190928 -1.224953 
				CHANNELS 3 Zrotation Xrotation Yrotation
				End Site
				{
					OFFSET 0.000000 -2.449906 4.627600 
				}
			}
		}
	}
	JOINT rThigh
	{
		OFFSET -5.308129 -1.633274 1.361059 
		CHANNELS 3 Zrotation Xrotation Yrotation
		JOINT rShin
		{
			OFFSET 2.041588 -20.007561 0.000000 
			CHANNELS 3 Zrotation Xrotation Yrotation
			JOINT rFoot
			{
				OFFSET 0.000000 -19.190928 -1.224953 
				CHANNELS 3 Zrotation Xrotation Yrotation
				End Site
				{
					OFFSET 0.000000 -2.449906 4.627600 
				}
			}
		}
	}
}
MOTION
Frames: 11
Frame Time: 0.033333
-2.872747 49.006344 -5.618698 0.332449 2.871047 37.190369 -0.000000 -0.000002 -0.000000 -1.783000 -11.361828 -3.330182 -0.980337 5.028560 -26.740234 -0.954937 -15.993991 -0.145955 -2.000757 -0.069240 1.990978 -61.415051 -8.319628 18.759354 4.132412 9.170330 -46.636501 -17.312237 -6.093946 -8.652780 1.990970 -0.069577 -2.000746 59.558510 10.050102 -12.549137 -12.051011 8.679810 56.806744 15.174096 24.493662 6.645302 4.773908 -18.659582 -17.199642 -7.546538 37.175030 3.342004 -5.650750 -21.940685 6.539053 -21.209753 -10.368528 -32.659767 8.729398 25.178757 0.307828 -0.063379 -13.876966 0.034449 
-2.868163 49.363274 -5.917506 0.048915 3.427729 37.213875 -0.000000 -0.000002 -0.000000 -2.725566 -18.925406 -3.531522 -3.683110 1.617745 -23.645880 -0.954937 -15.993991 -0.145955 -2.000757 -0.069240 1.990978 -52.143082 -20.797022 27.078489 2.199915 10.437243 -24.631470 -17.307459 -6.005771 -8.641529 1.990970 -0.069577 -2.000746 66.690857 9.325984 -29.579338 -8.859755 12.052752 38.637791 15.470602 29.461651 5.621419 4.437326 -17.611078 -17.564808 -7.027213 35.136520 3.040886 -5.196719 -21.394463 7.213098 -20.474100 -9.618793 -32.083138 7.582137 22.821173 0.790062 1.011385 -13.011447 -0.380714 
-2.908705 49.198425 -3.890734 0.518071 2.499895 37.184387 -0.000000 -0.000002 -0.000000 -2.989494 -20.882204 -3.615272 -4.189892 0.827855 -22.771385 -0.954937 -15.993991 -0.145955 -2.000757 -0.069240 1.990978 -48.948746 -23.552002 29.775543 1.634201 10.627039 -18.949677 -17.298187 -5.901464 -8.610408 1.990970 -0.069577 -2.000746 70.261169 7.108524 -38.988392 -5.804060 13.830350 24.736872 15.613498 31.212254 5.231599 6.163439 -13.385520 -17.891245 -6.419472 33.690067 2.646397 -6.356851 -25.105877 6.816286 -20.128166 -7.369360 -31.802189 9.258687 26.347219 0.069629 -0.007404 -18.007420 0.140821 
-3.022954 48.607342 -1.536271 1.543029 0.517367 37.164101 -0.000000 -0.000002 -0.000000 -2.950165 -20.473131 -3.572208 -4.316777 0.759557 -23.068451 -0.954937 -15.993991 -0.145955 -2.000757 -0.069240 1.990978 -50.310879 -21.939392 28.854021 1.886924 10.553900 -21.449760 -17.291071 -5.803766 -8.589261 1.990970 -0.069577 -2.000746 70.679291 8.504674 -39.810242 -4.890059 14.183466 20.909376 15.256975 25.944754 6.355697 8.075730 -9.764619 -18.630953 -6.687256 35.566158 2.743337 -6.963796 -28.926943 6.394987 -20.784431 -5.464043 -30.722939 12.693248 33.715229 -1.600366 -1.809054 -24.035429 0.031856 
-3.160983 45.885086 1.126998 2.774983 -1.902073 37.172558 -0.000000 -0.000002 -0.000000 -3.210376 -22.360897 -3.605766 -6.477697 -1.766011 -23.052044 -0.954937 -15.993991 -0.145955 -2.000757 -0.069240 1.990978 -50.252201 -20.113346 29.539612 1.866790 10.555187 -21.290771 -17.284912 -5.718730 -8.558519 1.990970 -0.069577 -2.000746 69.401894 15.270598 -38.288979 -6.232438 13.635174 26.595844 14.880236 14.268774 8.587150 9.583004 -11.108846 -20.716248 -11.653023 50.533794 6.116961 -3.642293 -36.531334 6.595089 -24.260786 -7.603764 -25.274965 24.821583 51.151024 -9.953912 -5.183991 -31.898951 -4.525855 
-3.272928 41.905998 4.080550 3.906410 -4.082335 37.232307 -0.000000 -0.000002 -0.000000 -3.616037 -25.560993 -3.554093 -9.883268 -5.696028 -23.070751 -0.954937 -15.993991 -0.145955 -2.000757 -0.069240 1.990978 -49.619167 -17.951462 31.039251 1.736835 10.607264 -19.992115 -17.240662 -4.880762 -8.370405 1.990970 -0.069577 -2.000746 68.640511 23.068974 -37.434731 -8.372341 12.393698 36.335896 14.971822 2.533569 10.674612 11.009336 -12.829379 -23.630470 -23.438452 66.972282 16.309299 1.915415 -41.768341 8.733176 -25.461683 -11.140483 -17.014807 49.287243 65.768768 -31.079741 -6.891392 -38.896439 -11.161722 
-3.308821 37.430847 7.304848 4.590750 -5.402643 37.289402 -0.000000 -0.000002 -0.000000 -4.082070 -29.147032 -3.524563 -13.715570 -10.167057 -23.179749 -0.954937 -15.993991 -0.145955 -2.000757 -0.069240 1.990978 -49.057529 -15.453398 32.686676 1.594918 10.648983 -18.603045 -17.211466 -3.733273 -8.113029 1.990970 -0.069577 -2.000746 67.202438 32.426456 -34.442852 -11.220557 9.779342 51.450256 15.582832 -10.413759 13.050710 12.161730 -15.589483 -26.868141 -71.617714 79.807419 62.986656 5.823721 -37.539268 10.676359 -23.130697 -14.595793 -7.499209 93.679840 70.886635 -72.766228 -6.102823 -45.795193 -17.113205 
-3.218793 33.028896 10.781288 4.501185 -5.228058 37.276211 -0.000000 -0.000002 -0.000000 -4.605004 -32.630665 -3.658790 -17.445759 -14.723461 -23.287224 -0.954937 -15.993991 -0.145955 -2.000757 -0.069240 1.990978 -48.607559 -13.075029 34.217087 1.453840 10.688192 -17.173862 -17.180815 -2.438028 -7.829389 1.990970 -0.069577 -2.000746 64.018776 42.347954 -28.211449 -13.564454 5.812040 69.304878 16.864546 -23.834568 15.866679 13.552930 -17.567585 -30.044447 -134.724594 76.325478 125.022072 7.426348 -28.619968 10.863091 -18.014206 -16.547981 1.568185 128.717911 65.929810 -105.597168 -2.678263 -52.936989 -19.989990 
-2.952923 29.288370 14.491114 3.295255 -2.905368 37.189251 -0.000000 -0.000002 -0.000000 -5.187181 -35.543003 -4.124360 -20.505262 -18.889677 -23.241539 -0.954937 -15.993991 -0.145955 -2.000757 -0.069240 1.990978 -48.301579 -11.235518 35.455990 1.301423 10.719940 -15.753892 -17.146305 -1.162990 -7.550379 1.990970 -0.069577 -2.000746 56.842861 51.546467 -16.697863 -14.582612 1.161095 87.557457 19.131495 -36.981190 19.404350 15.470868 -17.529919 -32.297939 -149.622284 71.183853 139.304459 9.238845 -23.048367 11.699184 -12.160357 -16.073017 7.942122 143.430481 59.484623 -118.777657 2.586212 -59.112541 -18.454765 
-2.425843 27.106203 18.531919 0.615736 2.314296 37.182167 -0.000000 -0.000002 -0.000000 -5.875421 -37.656673 -5.072765 -22.426567 -22.456848 -22.790583 -0.954937 -15.993991 -0.145955 -2.000757 -0.069240 1.990978 -48.004185 -10.198209 36.356873 1.165769 10.757433 -14.363949 -17.136351 -0.058119 -7.294916 1.990970 -0.069577 -2.000746 42.998791 58.022408 2.508432 -14.217539 -3.161780 104.107536 22.813997 -49.078812 24.169624 17.098019 -16.697662 -32.582893 -149.596817 71.559593 139.220535 10.325536 -19.120050 13.870129 -7.370607 -14.411704 9.916807 146.998734 57.444485 -121.788017 7.974860 -60.007397 -14.167032 
-1.458565 27.472197 23.448511 -3.889301 10.951874 37.711998 -0.000000 -0.000002 -0.000000 -6.844953 -40.051903 -6.477453 -23.869802 -26.457052 -21.543430 -0.954937 -15.993991 -0.145955 -2.000757 -0.069240 1.990978 -47.558048 -9.147449 37.729614 1.025774 10.777480 -13.082260 -17.107830 0.715885 -7.119684 1.990970 -0.069577 -2.000746 24.973452 60.129761 26.333906 -13.095999 -6.273885 116.761688 28.589813 -59.318756 30.801577 17.570402 -15.025098 -30.039616 -120.795113 79.204781 111.243889 10.291951 -15.650688 18.107487 -3.464709 -14.172082 8.746282 137.374908 63.298332 -113.277687 12.731354 -47.994213 -11.648475 
